<mxfile host="app.diagrams.net" modified="2023-05-03T19:12:31.425Z" agent="Mozilla/5.0 (X11; Linux x86_64; rv:109.0) Gecko/20100101 Firefox/112.0" etag="W9MheJN7tcWiOPkf53gs" version="21.2.7" type="device">
  <diagram name="Page-1" id="6nnVN3tB7o5rZH-Cpd8C">
    <mxGraphModel dx="2049" dy="1129" grid="1" gridSize="10" guides="1" tooltips="1" connect="1" arrows="1" fold="1" page="1" pageScale="1" pageWidth="850" pageHeight="1100" math="0" shadow="0">
      <root>
        <mxCell id="0" />
        <mxCell id="1" parent="0" />
        <mxCell id="t_Q8SzYdPFU0WzizyJnB-1" value="UML" style="html=1;overflow=block;blockSpacing=1;whiteSpace=wrap;fontSize=16.7;fontColor=#3a414a;spacing=3.8;strokeColor=#3a414a;strokeOpacity=100;rounded=1;absoluteArcSize=1;arcSize=9;strokeWidth=0.8;lucidId=fSFUjjiUkJsw;" vertex="1" parent="1">
          <mxGeometry x="495" y="150" width="375" height="630" as="geometry" />
        </mxCell>
        <mxCell id="t_Q8SzYdPFU0WzizyJnB-2" value="Create appointment slots" style="html=1;overflow=block;blockSpacing=1;whiteSpace=wrap;ellipse;fontSize=16.7;fontColor=#3a414a;spacing=3.8;strokeColor=#3a414a;strokeOpacity=100;rounded=1;absoluteArcSize=1;arcSize=9;strokeWidth=0.8;lucidId=rWFUhTpxlkhA;" vertex="1" parent="1">
          <mxGeometry x="570" y="645" width="225" height="120" as="geometry" />
        </mxCell>
        <mxCell id="t_Q8SzYdPFU0WzizyJnB-3" value="make bookings on available appointment slots" style="html=1;overflow=block;blockSpacing=1;whiteSpace=wrap;ellipse;fontSize=16.7;fontColor=#3a414a;spacing=3.8;strokeColor=#3a414a;strokeOpacity=100;rounded=1;absoluteArcSize=1;arcSize=9;strokeWidth=0.8;lucidId=XWFUOqzluJdc;" vertex="1" parent="1">
          <mxGeometry x="570" y="405" width="225" height="120" as="geometry" />
        </mxCell>
        <mxCell id="t_Q8SzYdPFU0WzizyJnB-4" value="view available appointment slots " style="html=1;overflow=block;blockSpacing=1;whiteSpace=wrap;ellipse;fontSize=16.7;fontColor=#3a414a;spacing=3.8;strokeColor=#3a414a;strokeOpacity=100;rounded=1;absoluteArcSize=1;arcSize=9;strokeWidth=0.8;lucidId=qXFU9NNrkOMq;" vertex="1" parent="1">
          <mxGeometry x="570" y="180" width="225" height="120" as="geometry" />
        </mxCell>
        <mxCell id="t_Q8SzYdPFU0WzizyJnB-5" value="" style="html=1;overflow=block;blockSpacing=1;whiteSpace=wrap;shape=image;fontSize=13;spacing=3.8;strokeColor=none;strokeOpacity=100;strokeWidth=0;image=https://images.lucid.app/images/7fad2617-955a-47a8-80a7-f73348717072/content;imageAspect=0;lucidId=.ZFU2lu52lz-;" vertex="1" parent="1">
          <mxGeometry x="270" y="390" width="96" height="96" as="geometry" />
        </mxCell>
        <mxCell id="t_Q8SzYdPFU0WzizyJnB-6" value="" style="html=1;overflow=block;blockSpacing=1;whiteSpace=wrap;shape=image;fontSize=13;spacing=3.8;strokeColor=none;strokeOpacity=100;strokeWidth=0;image=https://images.lucid.app/images/7fad2617-955a-47a8-80a7-f73348717072/content;imageAspect=0;lucidId=d0FU3Y_iup~m;" vertex="1" parent="1">
          <mxGeometry x="1050" y="390" width="96" height="96" as="geometry" />
        </mxCell>
        <mxCell id="t_Q8SzYdPFU0WzizyJnB-7" value="" style="html=1;jettySize=18;whiteSpace=wrap;fontSize=13;strokeColor=#3a414a;strokeOpacity=100;strokeWidth=0.8;rounded=1;arcSize=12;edgeStyle=orthogonalEdgeStyle;startArrow=none;endArrow=block;endFill=1;exitX=0.5;exitY=0.938;exitPerimeter=0;entryX=1.002;entryY=0.5;entryPerimeter=0;lucidId=_0FUUUFeNEdG;" edge="1" parent="1" source="t_Q8SzYdPFU0WzizyJnB-6" target="t_Q8SzYdPFU0WzizyJnB-2">
          <mxGeometry width="100" height="100" relative="1" as="geometry">
            <Array as="points" />
          </mxGeometry>
        </mxCell>
        <mxCell id="t_Q8SzYdPFU0WzizyJnB-8" value="" style="html=1;jettySize=18;whiteSpace=wrap;fontSize=13;strokeColor=#3a414a;strokeOpacity=100;strokeWidth=0.8;rounded=1;arcSize=12;edgeStyle=orthogonalEdgeStyle;startArrow=none;endArrow=block;endFill=1;exitX=0.703;exitY=0.203;exitPerimeter=0;entryX=-0.002;entryY=0.5;entryPerimeter=0;lucidId=41FUgHRfgvrh;" edge="1" parent="1" source="t_Q8SzYdPFU0WzizyJnB-5" target="t_Q8SzYdPFU0WzizyJnB-4">
          <mxGeometry width="100" height="100" relative="1" as="geometry">
            <Array as="points" />
          </mxGeometry>
        </mxCell>
        <mxCell id="t_Q8SzYdPFU0WzizyJnB-9" value="" style="html=1;jettySize=18;whiteSpace=wrap;fontSize=13;strokeColor=#3a414a;strokeOpacity=100;strokeWidth=0.8;rounded=1;arcSize=12;edgeStyle=orthogonalEdgeStyle;startArrow=none;endArrow=block;endFill=1;exitX=0.891;exitY=0.781;exitPerimeter=0;entryX=-0.002;entryY=0.5;entryPerimeter=0;lucidId=.1FUM8WxFy20;" edge="1" parent="1" source="t_Q8SzYdPFU0WzizyJnB-5" target="t_Q8SzYdPFU0WzizyJnB-3">
          <mxGeometry width="100" height="100" relative="1" as="geometry">
            <Array as="points" />
          </mxGeometry>
        </mxCell>
      </root>
    </mxGraphModel>
  </diagram>
</mxfile>
